ffmpeg started on 2025-06-07 at 16:22:47
Report written to "D:\Convert\FFMetrics\reports\psnr_report-6.txt"
Log level: 32
Command line:
ffmpeg -hide_banner -nostdin -i "G:\\\xc0\xed\xe8\xec\xe5\\\xce\xed\xe3\xee\xe8\xed\xe3\xe8\\!_36_\xce\xf1\xe5\xed\xfc_2024\\DreamCast\\\xd6\xe8\xea\xeb \xe8\xf1\xf2\xee\xf0\xe8\xe9 - \xcc\xe5\xe6\xf1\xe5\xe7\xee\xed\xfc\xe5 \xe8 \xf1\xe5\xe7\xee\xed \xec\xee\xed\xf1\xf2\xf0\xee\xe2\\DC_Monogatari_Series_Off_and_Monster_Season_01_Telegram_HEVC.mkv" -i "G:\\\xc0\xed\xe8\xec\xe5\\\xce\xed\xe3\xee\xe8\xed\xe3\xe8\\!_36_\xce\xf1\xe5\xed\xfc_2024\\DreamCast\\\xd6\xe8\xea\xeb \xe8\xf1\xf2\xee\xf0\xe8\xe9 - \xcc\xe5\xe6\xf1\xe5\xe7\xee\xed\xfc\xe5 \xe8 \xf1\xe5\xe7\xee\xed \xec\xee\xed\xf1\xf2\xf0\xee\xe2\\DC_Monogatari_Series_Off_and_Monster_Season_01_Telegram.mp4" -lavfi "[0:v]settb=AVTB,setpts=PTS-STARTPTS,format=pix_fmts=yuv420p10,fps=24000/1001,scale=1920:1080:flags=bicubic[main];[1:v]settb=AVTB,setpts=PTS-STARTPTS,format=pix_fmts=yuv420p,fps=24000/1001,scale=1920:1080:flags=bicubic[ref];[main][ref]psnr=eof_action=endall:stats_file='D\\:/Convert/FFMetrics/logs/psnr_logfile-6.txt'" -f null -
Input #0, matroska,webm, from 'G:\Аниме\Онгоинги\!_36_Осень_2024\DreamCast\Цикл историй - Межсезонье и сезон монстров\DC_Monogatari_Series_Off_and_Monster_Season_01_Telegram_HEVC.mkv':
  Metadata:
    COMPATIBLE_BRANDS: isomiso2avc1mp41
    MAJOR_BRAND     : isom
    MINOR_VERSION   : 512
    ENCODER         : Lavf61.7.100
  Duration: 00:32:08.32, start: -0.021000, bitrate: 1599 kb/s
  Stream #0:0: Video: hevc (Main 10), yuv420p10le(tv, bt709, progressive), 1920x1080 [SAR 1:1 DAR 16:9], 23.98 fps, 23.98 tbr, 1k tbn (default)
      Metadata:
        HANDLER_NAME    : VideoHandler
        VENDOR_ID       : [0][0][0][0]
        ENCODER         : Lavc61.19.100 libx265
        BPS             : 1403549
        DURATION        : 00:32:06.382708333
        NUMBER_OF_FRAMES: 46187
        NUMBER_OF_BYTES : 337971679
        _STATISTICS_WRITING_APP: mkvpropedit v66.0.0 ('Josie') 64-bit
        _STATISTICS_WRITING_DATE_UTC: 2025-06-05 09:52:47
        _STATISTICS_TAGS: BPS DURATION NUMBER_OF_FRAMES NUMBER_OF_BYTES
  Stream #0:1: Audio: aac (LC), 48000 Hz, stereo, fltp (default)
      Metadata:
        HANDLER_NAME    : SoundHandler
        VENDOR_ID       : [0][0][0][0]
        ENCODER         : Lavc61.19.100 aac
        BPS             : 192854
        DURATION        : 00:32:08.320000000
        NUMBER_OF_FRAMES: 90391
        NUMBER_OF_BYTES : 46485582
        _STATISTICS_WRITING_APP: mkvpropedit v66.0.0 ('Josie') 64-bit
        _STATISTICS_WRITING_DATE_UTC: 2025-06-05 09:52:47
        _STATISTICS_TAGS: BPS DURATION NUMBER_OF_FRAMES NUMBER_OF_BYTES
Input #1, mov,mp4,m4a,3gp,3g2,mj2, from 'G:\Аниме\Онгоинги\!_36_Осень_2024\DreamCast\Цикл историй - Межсезонье и сезон монстров\DC_Monogatari_Series_Off_and_Monster_Season_01_Telegram.mp4':
  Metadata:
    major_brand     : isom
    minor_version   : 512
    compatible_brands: isomiso2avc1mp41
    encoder         : Lavf60.16.100
  Duration: 00:32:08.29, start: 0.000000, bitrate: 3672 kb/s
  Stream #1:0[0x1](und): Video: h264 (High) (avc1 / 0x31637661), yuv420p(tv, bt709, progressive), 1920x1080 [SAR 1:1 DAR 16:9], 3528 kb/s, 23.98 fps, 23.98 tbr, 24k tbn (default)
      Metadata:
        handler_name    : VideoHandler
        vendor_id       : [0][0][0][0]
        encoder         : Lavc60.31.102 h264_qsv
  Stream #1:1[0x2](und): Audio: aac (HE-AACv2) (mp4a / 0x6134706D), 48000 Hz, stereo, fltp, 144 kb/s (default)
      Metadata:
        handler_name    : SoundHandler
        vendor_id       : [0][0][0][0]
Stream mapping:
  Stream #0:0 (hevc) -> settb:default
  Stream #1:0 (h264) -> settb:default
  psnr:default -> Stream #0:0 (wrapped_avframe)
  Stream #0:1 -> #0:1 (aac (native) -> pcm_s16le (native))
Output #0, null, to 'pipe:':
  Metadata:
    COMPATIBLE_BRANDS: isomiso2avc1mp41
    MAJOR_BRAND     : isom
    MINOR_VERSION   : 512
    encoder         : Lavf61.7.100
  Stream #0:0: Video: wrapped_avframe, yuv420p10le(tv, bt709, progressive), 1920x1080 [SAR 1:1 DAR 16:9], q=2-31, 200 kb/s, 23.98 fps, 23.98 tbn
      Metadata:
        encoder         : Lavc61.19.100 wrapped_avframe
  Stream #0:1: Audio: pcm_s16le, 48000 Hz, stereo, s16, 1536 kb/s (default)
      Metadata:
        HANDLER_NAME    : SoundHandler
        VENDOR_ID       : [0][0][0][0]
        _STATISTICS_TAGS: BPS DURATION NUMBER_OF_FRAMES NUMBER_OF_BYTES
        BPS             : 192854
        DURATION        : 00:32:08.320000000
        NUMBER_OF_FRAMES: 90391
        NUMBER_OF_BYTES : 46485582
        _STATISTICS_WRITING_APP: mkvpropedit v66.0.0 ('Josie') 64-bit
        _STATISTICS_WRITING_DATE_UTC: 2025-06-05 09:52:47
        encoder         : Lavc61.19.100 pcm_s16le
frame=  170 fps=0.0 q=-0.0 size=N/A time=00:00:07.09 bitrate=N/A speed=13.7x    frame=  379 fps=368 q=-0.0 size=N/A time=00:00:15.80 bitrate=N/A speed=15.4x    frame=  579 fps=372 q=-0.0 size=N/A time=00:00:24.14 bitrate=N/A speed=15.5x    frame=  786 fps=380 q=-0.0 size=N/A time=00:00:32.78 bitrate=N/A speed=15.9x    frame= 1028 fps=399 q=-0.0 size=N/A time=00:00:42.87 bitrate=N/A speed=16.6x    frame= 1258 fps=406 q=-0.0 size=N/A time=00:00:52.46 bitrate=N/A speed=16.9x    frame= 1458 fps=404 q=-0.0 size=N/A time=00:01:00.81 bitrate=N/A speed=16.9x    frame= 1632 fps=396 q=-0.0 size=N/A time=00:01:08.06 bitrate=N/A speed=16.5x    frame= 1808 fps=389 q=-0.0 size=N/A time=00:01:15.40 bitrate=N/A speed=16.2x    frame= 2055 fps=399 q=-0.0 size=N/A time=00:01:25.71 bitrate=N/A speed=16.6x    frame= 2254 fps=398 q=-0.0 size=N/A time=00:01:34.01 bitrate=N/A speed=16.6x    frame= 2484 fps=401 q=-0.0 size=N/A time=00:01:43.60 bitrate=N/A speed=16.7x    frame= 2725 fps=407 q=-0.0 size=N/A time=00:01:53.65 bitrate=N/A speed=  17x    frame= 2929 fps=405 q=-0.0 size=N/A time=00:02:02.16 bitrate=N/A speed=16.9x    frame= 3160 fps=408 q=-0.0 size=N/A time=00:02:11.79 bitrate=N/A speed=  17x    frame= 3355 fps=407 q=-0.0 size=N/A time=00:02:19.93 bitrate=N/A speed=  17x    frame= 3612 fps=412 q=-0.0 size=N/A time=00:02:30.65 bitrate=N/A speed=17.2x    frame= 3856 fps=416 q=-0.0 size=N/A time=00:02:40.82 bitrate=N/A speed=17.3x    frame= 4082 fps=416 q=-0.0 size=N/A time=00:02:50.25 bitrate=N/A speed=17.4x    frame= 4300 fps=417 q=-0.0 size=N/A time=00:02:59.34 bitrate=N/A speed=17.4x    frame= 4568 fps=421 q=-0.0 size=N/A time=00:03:10.52 bitrate=N/A speed=17.6x    frame= 4803 fps=423 q=-0.0 size=N/A time=00:03:20.32 bitrate=N/A speed=17.6x    frame= 5077 fps=427 q=-0.0 size=N/A time=00:03:31.75 bitrate=N/A speed=17.8x    frame= 5316 fps=429 q=-0.0 size=N/A time=00:03:41.72 bitrate=N/A speed=17.9x    frame= 5572 fps=432 q=-0.0 size=N/A time=00:03:52.39 bitrate=N/A speed=  18x    frame= 5798 fps=432 q=-0.0 size=N/A time=00:04:01.82 bitrate=N/A speed=  18x    frame= 6041 fps=433 q=-0.0 size=N/A time=00:04:11.96 bitrate=N/A speed=18.1x    frame= 6315 fps=437 q=-0.0 size=N/A time=00:04:23.38 bitrate=N/A speed=18.2x    frame= 6558 fps=438 q=-0.0 size=N/A time=00:04:33.52 bitrate=N/A speed=18.3x    frame= 6800 fps=439 q=-0.0 size=N/A time=00:04:43.61 bitrate=N/A speed=18.3x    frame= 7050 fps=441 q=-0.0 size=N/A time=00:04:54.04 bitrate=N/A speed=18.4x    frame= 7276 fps=440 q=-0.0 size=N/A time=00:05:03.46 bitrate=N/A speed=18.4x    frame= 7514 fps=441 q=-0.0 size=N/A time=00:05:13.39 bitrate=N/A speed=18.4x    frame= 7780 fps=443 q=-0.0 size=N/A time=00:05:24.49 bitrate=N/A speed=18.5x    frame= 8039 fps=445 q=-0.0 size=N/A time=00:05:35.29 bitrate=N/A speed=18.6x    frame= 8197 fps=441 q=-0.0 size=N/A time=00:05:41.88 bitrate=N/A speed=18.4x    frame= 8434 fps=442 q=-0.0 size=N/A time=00:05:51.76 bitrate=N/A speed=18.4x    frame= 8717 fps=445 q=-0.0 size=N/A time=00:06:03.57 bitrate=N/A speed=18.5x    frame= 8958 fps=445 q=-0.0 size=N/A time=00:06:13.62 bitrate=N/A speed=18.6x    frame= 9210 fps=446 q=-0.0 size=N/A time=00:06:24.13 bitrate=N/A speed=18.6x    frame= 9481 fps=448 q=-0.0 size=N/A time=00:06:35.43 bitrate=N/A speed=18.7x    frame= 9718 fps=448 q=-0.0 size=N/A time=00:06:45.32 bitrate=N/A speed=18.7x    frame= 9973 fps=449 q=-0.0 size=N/A time=00:06:55.95 bitrate=N/A speed=18.7x    frame=10179 fps=448 q=-0.0 size=N/A time=00:07:04.54 bitrate=N/A speed=18.7x    frame=10442 fps=450 q=-0.0 size=N/A time=00:07:15.51 bitrate=N/A speed=18.7x    frame=10704 fps=451 q=-0.0 size=N/A time=00:07:26.44 bitrate=N/A speed=18.8x    frame=10938 fps=451 q=-0.0 size=N/A time=00:07:36.20 bitrate=N/A speed=18.8x    frame=11138 fps=450 q=-0.0 size=N/A time=00:07:44.54 bitrate=N/A speed=18.8x    frame=11341 fps=449 q=-0.0 size=N/A time=00:07:53.01 bitrate=N/A speed=18.7x    frame=11571 fps=449 q=-0.0 size=N/A time=00:08:02.60 bitrate=N/A speed=18.7x    frame=11841 fps=450 q=-0.0 size=N/A time=00:08:13.86 bitrate=N/A speed=18.8x    frame=12116 fps=452 q=-0.0 size=N/A time=00:08:25.33 bitrate=N/A speed=18.8x    frame=12332 fps=451 q=-0.0 size=N/A time=00:08:34.34 bitrate=N/A speed=18.8x    frame=12588 fps=452 q=-0.0 size=N/A time=00:08:45.02 bitrate=N/A speed=18.8x    frame=12852 fps=453 q=-0.0 size=N/A time=00:08:56.03 bitrate=N/A speed=18.9x    frame=13111 fps=454 q=-0.0 size=N/A time=00:09:06.83 bitrate=N/A speed=18.9x    frame=13397 fps=455 q=-0.0 size=N/A time=00:09:18.76 bitrate=N/A speed=  19x    frame=13675 fps=457 q=-0.0 size=N/A time=00:09:30.36 bitrate=N/A speed=19.1x    frame=13914 fps=457 q=-0.0 size=N/A time=00:09:40.32 bitrate=N/A speed=19.1x    frame=14173 fps=458 q=-0.0 size=N/A time=00:09:51.13 bitrate=N/A speed=19.1x    frame=14459 fps=459 q=-0.0 size=N/A time=00:10:03.06 bitrate=N/A speed=19.2x    frame=14667 fps=458 q=-0.0 size=N/A time=00:10:11.73 bitrate=N/A speed=19.1x    frame=14870 fps=457 q=-0.0 size=N/A time=00:10:20.24 bitrate=N/A speed=19.1x    frame=15134 fps=458 q=-0.0 size=N/A time=00:10:31.21 bitrate=N/A speed=19.1x    frame=15398 fps=459 q=-0.0 size=N/A time=00:10:42.22 bitrate=N/A speed=19.2x    frame=15652 fps=460 q=-0.0 size=N/A time=00:10:52.81 bitrate=N/A speed=19.2x    frame=15913 fps=460 q=-0.0 size=N/A time=00:11:03.70 bitrate=N/A speed=19.2x    frame=16186 fps=461 q=-0.0 size=N/A time=00:11:15.09 bitrate=N/A speed=19.2x    frame=16447 fps=462 q=-0.0 size=N/A time=00:11:25.97 bitrate=N/A speed=19.3x    frame=16730 fps=463 q=-0.0 size=N/A time=00:11:37.78 bitrate=N/A speed=19.3x    frame=16995 fps=464 q=-0.0 size=N/A time=00:11:48.83 bitrate=N/A speed=19.4x    frame=17278 fps=465 q=-0.0 size=N/A time=00:12:00.63 bitrate=N/A speed=19.4x    frame=17538 fps=466 q=-0.0 size=N/A time=00:12:11.48 bitrate=N/A speed=19.4x    frame=17771 fps=466 q=-0.0 size=N/A time=00:12:21.19 bitrate=N/A speed=19.4x    frame=18013 fps=466 q=-0.0 size=N/A time=00:12:31.29 bitrate=N/A speed=19.4x    frame=18238 fps=465 q=-0.0 size=N/A time=00:12:40.67 bitrate=N/A speed=19.4x    frame=18493 fps=466 q=-0.0 size=N/A time=00:12:51.31 bitrate=N/A speed=19.4x    frame=18752 fps=466 q=-0.0 size=N/A time=00:13:02.11 bitrate=N/A speed=19.4x    frame=19009 fps=466 q=-0.0 size=N/A time=00:13:12.83 bitrate=N/A speed=19.5x    frame=19285 fps=467 q=-0.0 size=N/A time=00:13:24.34 bitrate=N/A speed=19.5x    frame=19549 fps=468 q=-0.0 size=N/A time=00:13:35.35 bitrate=N/A speed=19.5x    frame=19832 fps=469 q=-0.0 size=N/A time=00:13:47.15 bitrate=N/A speed=19.6x    frame=20067 fps=469 q=-0.0 size=N/A time=00:13:56.96 bitrate=N/A speed=19.5x    frame=20330 fps=469 q=-0.0 size=N/A time=00:14:07.93 bitrate=N/A speed=19.6x    frame=20623 fps=470 q=-0.0 size=N/A time=00:14:20.15 bitrate=N/A speed=19.6x    frame=20894 fps=471 q=-0.0 size=N/A time=00:14:31.45 bitrate=N/A speed=19.6x    frame=21164 fps=472 q=-0.0 size=N/A time=00:14:42.71 bitrate=N/A speed=19.7x    frame=21449 fps=473 q=-0.0 size=N/A time=00:14:54.60 bitrate=N/A speed=19.7x    frame=21700 fps=473 q=-0.0 size=N/A time=00:15:05.07 bitrate=N/A speed=19.7x    frame=21946 fps=473 q=-0.0 size=N/A time=00:15:15.33 bitrate=N/A speed=19.7x    frame=22166 fps=472 q=-0.0 size=N/A time=00:15:24.50 bitrate=N/A speed=19.7x    frame=22390 fps=472 q=-0.0 size=N/A time=00:15:33.84 bitrate=N/A speed=19.7x    frame=22618 fps=471 q=-0.0 size=N/A time=00:15:43.35 bitrate=N/A speed=19.7x    frame=22861 fps=471 q=-0.0 size=N/A time=00:15:53.49 bitrate=N/A speed=19.7x    frame=23104 fps=471 q=-0.0 size=N/A time=00:16:03.62 bitrate=N/A speed=19.7x    frame=23340 fps=471 q=-0.0 size=N/A time=00:16:13.47 bitrate=N/A speed=19.7x    frame=23607 fps=472 q=-0.0 size=N/A time=00:16:24.60 bitrate=N/A speed=19.7x    frame=23879 fps=472 q=-0.0 size=N/A time=00:16:35.95 bitrate=N/A speed=19.7x    frame=24136 fps=473 q=-0.0 size=N/A time=00:16:46.67 bitrate=N/A speed=19.7x    frame=24353 fps=472 q=-0.0 size=N/A time=00:16:55.72 bitrate=N/A speed=19.7x    frame=24590 fps=472 q=-0.0 size=N/A time=00:17:05.60 bitrate=N/A speed=19.7x    frame=24842 fps=472 q=-0.0 size=N/A time=00:17:16.11 bitrate=N/A speed=19.7x    frame=25077 fps=472 q=-0.0 size=N/A time=00:17:25.91 bitrate=N/A speed=19.7x    frame=25319 fps=472 q=-0.0 size=N/A time=00:17:36.01 bitrate=N/A speed=19.7x    frame=25566 fps=472 q=-0.0 size=N/A time=00:17:46.31 bitrate=N/A speed=19.7x    frame=25824 fps=472 q=-0.0 size=N/A time=00:17:57.07 bitrate=N/A speed=19.7x    frame=26090 fps=473 q=-0.0 size=N/A time=00:18:08.17 bitrate=N/A speed=19.7x    frame=26363 fps=473 q=-0.0 size=N/A time=00:18:19.55 bitrate=N/A speed=19.7x    frame=26574 fps=473 q=-0.0 size=N/A time=00:18:28.35 bitrate=N/A speed=19.7x    frame=26818 fps=473 q=-0.0 size=N/A time=00:18:38.53 bitrate=N/A speed=19.7x    frame=27043 fps=472 q=-0.0 size=N/A time=00:18:47.91 bitrate=N/A speed=19.7x    frame=27332 fps=473 q=-0.0 size=N/A time=00:18:59.97 bitrate=N/A speed=19.7x    frame=27600 fps=474 q=-0.0 size=N/A time=00:19:11.15 bitrate=N/A speed=19.8x    frame=27842 fps=473 q=-0.0 size=N/A time=00:19:21.24 bitrate=N/A speed=19.7x    frame=28096 fps=474 q=-0.0 size=N/A time=00:19:31.83 bitrate=N/A speed=19.8x    frame=28346 fps=474 q=-0.0 size=N/A time=00:19:42.26 bitrate=N/A speed=19.8x    frame=28594 fps=474 q=-0.0 size=N/A time=00:19:52.60 bitrate=N/A speed=19.8x    frame=28850 fps=474 q=-0.0 size=N/A time=00:20:03.28 bitrate=N/A speed=19.8x    frame=29085 fps=474 q=-0.0 size=N/A time=00:20:13.08 bitrate=N/A speed=19.8x    frame=29305 fps=474 q=-0.0 size=N/A time=00:20:22.26 bitrate=N/A speed=19.7x    frame=29570 fps=474 q=-0.0 size=N/A time=00:20:33.31 bitrate=N/A speed=19.8x    frame=29780 fps=473 q=-0.0 size=N/A time=00:20:42.07 bitrate=N/A speed=19.7x    frame=30023 fps=473 q=-0.0 size=N/A time=00:20:52.20 bitrate=N/A speed=19.7x    frame=30248 fps=473 q=-0.0 size=N/A time=00:21:01.59 bitrate=N/A speed=19.7x    frame=30471 fps=473 q=-0.0 size=N/A time=00:21:10.89 bitrate=N/A speed=19.7x    frame=30660 fps=472 q=-0.0 size=N/A time=00:21:18.77 bitrate=N/A speed=19.7x    frame=30841 fps=471 q=-0.0 size=N/A time=00:21:26.32 bitrate=N/A speed=19.6x    frame=31036 fps=470 q=-0.0 size=N/A time=00:21:34.45 bitrate=N/A speed=19.6x    frame=31288 fps=470 q=-0.0 size=N/A time=00:21:44.97 bitrate=N/A speed=19.6x    frame=31518 fps=470 q=-0.0 size=N/A time=00:21:54.56 bitrate=N/A speed=19.6x    frame=31738 fps=470 q=-0.0 size=N/A time=00:22:03.73 bitrate=N/A speed=19.6x    frame=31931 fps=469 q=-0.0 size=N/A time=00:22:11.78 bitrate=N/A speed=19.6x    frame=32174 fps=469 q=-0.0 size=N/A time=00:22:21.92 bitrate=N/A speed=19.6x    frame=32392 fps=469 q=-0.0 size=N/A time=00:22:31.01 bitrate=N/A speed=19.5x    frame=32643 fps=469 q=-0.0 size=N/A time=00:22:41.48 bitrate=N/A speed=19.6x    frame=32850 fps=468 q=-0.0 size=N/A time=00:22:50.11 bitrate=N/A speed=19.5x    frame=33076 fps=468 q=-0.0 size=N/A time=00:22:59.54 bitrate=N/A speed=19.5x    frame=33314 fps=468 q=-0.0 size=N/A time=00:23:09.47 bitrate=N/A speed=19.5x    frame=33508 fps=467 q=-0.0 size=N/A time=00:23:17.56 bitrate=N/A speed=19.5x    frame=33726 fps=467 q=-0.0 size=N/A time=00:23:26.65 bitrate=N/A speed=19.5x    frame=34007 fps=468 q=-0.0 size=N/A time=00:23:38.37 bitrate=N/A speed=19.5x    frame=34204 fps=467 q=-0.0 size=N/A time=00:23:46.59 bitrate=N/A speed=19.5x    frame=34443 fps=467 q=-0.0 size=N/A time=00:23:56.56 bitrate=N/A speed=19.5x    frame=34715 fps=467 q=-0.0 size=N/A time=00:24:07.90 bitrate=N/A speed=19.5x    frame=34970 fps=468 q=-0.0 size=N/A time=00:24:18.54 bitrate=N/A speed=19.5x    frame=35158 fps=467 q=-0.0 size=N/A time=00:24:26.38 bitrate=N/A speed=19.5x    frame=35344 fps=466 q=-0.0 size=N/A time=00:24:34.13 bitrate=N/A speed=19.4x    frame=35586 fps=466 q=-0.0 size=N/A time=00:24:44.23 bitrate=N/A speed=19.4x    frame=35848 fps=466 q=-0.0 size=N/A time=00:24:55.16 bitrate=N/A speed=19.5x    frame=36119 fps=467 q=-0.0 size=N/A time=00:25:06.46 bitrate=N/A speed=19.5x    frame=36373 fps=467 q=-0.0 size=N/A time=00:25:17.05 bitrate=N/A speed=19.5x    frame=36643 fps=467 q=-0.0 size=N/A time=00:25:28.31 bitrate=N/A speed=19.5x    frame=36914 fps=468 q=-0.0 size=N/A time=00:25:39.62 bitrate=N/A speed=19.5x    frame=37189 fps=468 q=-0.0 size=N/A time=00:25:51.09 bitrate=N/A speed=19.5x    frame=37449 fps=468 q=-0.0 size=N/A time=00:26:01.93 bitrate=N/A speed=19.5x    frame=37727 fps=469 q=-0.0 size=N/A time=00:26:13.53 bitrate=N/A speed=19.6x    frame=38019 fps=469 q=-0.0 size=N/A time=00:26:25.70 bitrate=N/A speed=19.6x    frame=38267 fps=470 q=-0.0 size=N/A time=00:26:36.05 bitrate=N/A speed=19.6x    frame=38543 fps=470 q=-0.0 size=N/A time=00:26:47.56 bitrate=N/A speed=19.6x    frame=38798 fps=470 q=-0.0 size=N/A time=00:26:58.19 bitrate=N/A speed=19.6x    frame=39045 fps=470 q=-0.0 size=N/A time=00:27:08.50 bitrate=N/A speed=19.6x    frame=39336 fps=471 q=-0.0 size=N/A time=00:27:20.63 bitrate=N/A speed=19.6x    frame=39606 fps=471 q=-0.0 size=N/A time=00:27:31.90 bitrate=N/A speed=19.6x    frame=39869 fps=471 q=-0.0 size=N/A time=00:27:42.86 bitrate=N/A speed=19.7x    frame=40127 fps=471 q=-0.0 size=N/A time=00:27:53.63 bitrate=N/A speed=19.7x    frame=40407 fps=472 q=-0.0 size=N/A time=00:28:05.30 bitrate=N/A speed=19.7x    frame=40650 fps=472 q=-0.0 size=N/A time=00:28:15.44 bitrate=N/A speed=19.7x    frame=40914 fps=472 q=-0.0 size=N/A time=00:28:26.45 bitrate=N/A speed=19.7x    frame=41186 fps=472 q=-0.0 size=N/A time=00:28:37.79 bitrate=N/A speed=19.7x    frame=41419 fps=472 q=-0.0 size=N/A time=00:28:47.51 bitrate=N/A speed=19.7x    frame=41669 fps=472 q=-0.0 size=N/A time=00:28:57.94 bitrate=N/A speed=19.7x    frame=41923 fps=472 q=-0.0 size=N/A time=00:29:08.53 bitrate=N/A speed=19.7x    frame=42175 fps=473 q=-0.0 size=N/A time=00:29:19.04 bitrate=N/A speed=19.7x    frame=42443 fps=473 q=-0.0 size=N/A time=00:29:30.22 bitrate=N/A speed=19.7x    frame=42717 fps=473 q=-0.0 size=N/A time=00:29:41.65 bitrate=N/A speed=19.7x    frame=42977 fps=473 q=-0.0 size=N/A time=00:29:52.49 bitrate=N/A speed=19.7x    frame=43221 fps=473 q=-0.0 size=N/A time=00:30:02.71 bitrate=N/A speed=19.7x    frame=43430 fps=473 q=-0.0 size=N/A time=00:30:11.39 bitrate=N/A speed=19.7x    frame=43646 fps=473 q=-0.0 size=N/A time=00:30:20.40 bitrate=N/A speed=19.7x    frame=43905 fps=473 q=-0.0 size=N/A time=00:30:31.20 bitrate=N/A speed=19.7x    frame=44128 fps=473 q=-0.0 size=N/A time=00:30:40.50 bitrate=N/A speed=19.7x    frame=44287 fps=472 q=-0.0 size=N/A time=00:30:47.13 bitrate=N/A speed=19.7x    frame=44415 fps=470 q=-0.0 size=N/A time=00:30:52.47 bitrate=N/A speed=19.6x    frame=44524 fps=469 q=-0.0 size=N/A time=00:30:57.02 bitrate=N/A speed=19.6x    frame=44666 fps=468 q=-0.0 size=N/A time=00:31:02.94 bitrate=N/A speed=19.5x    frame=44803 fps=467 q=-0.0 size=N/A time=00:31:08.65 bitrate=N/A speed=19.5x    frame=44936 fps=466 q=-0.0 size=N/A time=00:31:14.20 bitrate=N/A speed=19.4x    frame=45069 fps=465 q=-0.0 size=N/A time=00:31:19.75 bitrate=N/A speed=19.4x    frame=45188 fps=463 q=-0.0 size=N/A time=00:31:24.71 bitrate=N/A speed=19.3x    frame=45328 fps=462 q=-0.0 size=N/A time=00:31:30.55 bitrate=N/A speed=19.3x    frame=45493 fps=462 q=-0.0 size=N/A time=00:31:37.43 bitrate=N/A speed=19.3x    frame=45628 fps=461 q=-0.0 size=N/A time=00:31:43.10 bitrate=N/A speed=19.2x    frame=45772 fps=460 q=-0.0 size=N/A time=00:31:49.07 bitrate=N/A speed=19.2x    frame=45909 fps=459 q=-0.0 size=N/A time=00:31:54.78 bitrate=N/A speed=19.1x    frame=46051 fps=458 q=-0.0 size=N/A time=00:32:00.71 bitrate=N/A speed=19.1x    [Parsed_psnr_10 @ 00000277e5b40780] PSNR y:48.455540 u:50.656203 v:49.763784 average:48.959711 min:39.435222 max:inf
[out#0/null @ 00000277ddff2280] video:19846KiB audio:361564KiB subtitle:0KiB other streams:0KiB global headers:0KiB muxing overhead: unknown
frame=46187 fps=457 q=-0.0 Lsize=N/A time=00:32:06.38 bitrate=N/A speed=19.1x    
